<svg xmlns="http://www.w3.org/2000/svg" xmlns:xlink="http://www.w3.org/1999/xlink" width="500" zoomAndPan="magnify" viewBox="0 0 375 374.999991" height="500" preserveAspectRatio="xMidYMid meet" version="1.0"><defs><clipPath id="29856f876c"><path d="M 157 112.5 L 218 112.5 L 218 262.5 L 157 262.5 Z M 157 112.5 " clip-rule="nonzero"/></clipPath><clipPath id="771d55ee8e"><path d="M 112.5 144 L 262.5 144 L 262.5 231 L 112.5 231 Z M 112.5 144 " clip-rule="nonzero"/></clipPath></defs><g clip-path="url(#29856f876c)"><path fill="#ffffff" d="M 193.734375 115.082031 C 192.007812 113.351562 189.75 112.507812 187.488281 112.507812 C 185.265625 112.507812 183.007812 113.351562 181.28125 115.082031 L 157.039062 139.324219 C 157.777344 139.183594 158.554688 139.074219 159.296875 139.074219 L 165.753906 139.074219 L 185.515625 119.316406 C 186.042969 118.785156 186.785156 118.503906 187.488281 118.503906 C 188.230469 118.503906 188.9375 118.785156 189.503906 119.316406 L 209.261719 139.074219 L 215.71875 139.074219 C 216.460938 139.074219 217.234375 139.183594 217.980469 139.324219 Z M 217.730469 235.941406 L 193.734375 259.933594 C 192.007812 261.628906 189.75 262.507812 187.488281 262.507812 C 185.265625 262.507812 183.007812 261.628906 181.28125 259.933594 L 157.285156 235.941406 L 165.753906 235.941406 L 185.515625 255.699219 C 186.042969 256.230469 186.785156 256.511719 187.488281 256.511719 C 188.230469 256.511719 188.9375 256.230469 189.503906 255.699219 L 209.261719 235.941406 L 217.730469 235.941406 " fill-opacity="1" fill-rule="nonzero"/></g><path fill="#ffffff" d="M 179.234375 195.535156 L 206.15625 195.535156 L 206.15625 230.894531 L 227.542969 230.894531 L 227.542969 155.167969 L 227.542969 156.753906 C 227.542969 151.566406 220.800781 144.121094 215.71875 144.121094 L 206.15625 144.121094 L 206.15625 175.105469 L 179.234375 175.105469 L 179.234375 195.535156 " fill-opacity="1" fill-rule="nonzero"/><g clip-path="url(#771d55ee8e)"><path fill="#004aad" d="M 159.296875 144.121094 C 154.214844 144.121094 147.476562 151.566406 147.476562 156.753906 L 147.476562 230.894531 L 193.488281 230.894531 L 193.488281 210.746094 L 169 210.746094 L 169 144.121094 Z M 232.585938 162.402344 L 255.699219 185.511719 C 256.230469 186.042969 256.511719 186.785156 256.511719 187.492188 C 256.511719 188.230469 256.230469 188.9375 255.699219 189.5 L 232.585938 212.613281 L 232.585938 221.082031 L 259.933594 193.734375 C 261.628906 192.007812 262.507812 189.75 262.507812 187.492188 C 262.507812 185.265625 261.628906 183.007812 259.933594 181.28125 L 232.585938 153.933594 Z M 142.429688 221.082031 L 115.082031 193.734375 C 113.351562 192.007812 112.503906 189.75 112.503906 187.492188 C 112.503906 185.265625 113.351562 183.007812 115.082031 181.28125 L 142.886719 153.4375 C 142.605469 154.566406 142.429688 155.695312 142.429688 156.753906 L 142.429688 162.402344 L 119.316406 185.511719 C 118.785156 186.042969 118.503906 186.785156 118.503906 187.492188 C 118.503906 188.230469 118.785156 188.9375 119.316406 189.5 L 142.429688 212.613281 L 142.429688 221.082031 " fill-opacity="1" fill-rule="nonzero"/></g></svg>